<?xml version="1.0" encoding="utf-8"?>
<!-- Generator: Adobe Illustrator 13.0.0, SVG Export Plug-In . SVG Version: 6.00 Build 14948)  -->
<!DOCTYPE svg PUBLIC "-//W3C//DTD SVG 1.1//EN" "http://www.w3.org/Graphics/SVG/1.1/DTD/svg11.dtd">
<svg version="1.1" id="Calque_1" xmlns="http://www.w3.org/2000/svg" xmlns:xlink="http://www.w3.org/1999/xlink" x="0px" y="0px"
	 width="200px" height="50px" viewBox="0 0 200 50" enable-background="new 0 0 200 50" xml:space="preserve" fill="#ffffff">
<g>
	<path d="M18.756,44.25V6.506h5.32l12.096,19.095c2.8,4.424,4.984,8.4,6.776,12.265l0.112-0.056
		c-0.448-5.041-0.56-9.633-0.56-15.513V6.506h4.592V44.25h-4.928L30.18,25.098c-2.632-4.2-5.152-8.512-7.056-12.6l-0.168,0.056
		c0.28,4.76,0.392,9.296,0.392,15.568V44.25H18.756z"/>
	<path d="M79.963,30.475c0,10.023-6.944,14.392-13.496,14.392c-7.336,0-12.992-5.376-12.992-13.944
		c0-9.072,5.936-14.392,13.44-14.392C74.7,16.53,79.963,22.186,79.963,30.475z M58.459,30.754c0,5.936,3.416,10.416,8.232,10.416
		c4.704,0,8.232-4.424,8.232-10.527c0-4.592-2.296-10.417-8.12-10.417C60.979,20.226,58.459,25.602,58.459,30.754z"/>
	<path d="M92.115,10.65v6.496h7.056v3.752h-7.056v14.616c0,3.36,0.952,5.264,3.696,5.264c1.344,0,2.128-0.111,2.855-0.336
		l0.225,3.697c-0.952,0.391-2.464,0.728-4.368,0.728c-2.296,0-4.144-0.784-5.32-2.128c-1.4-1.456-1.904-3.864-1.904-7.057V20.898
		h-4.2v-3.752h4.2v-4.984L92.115,10.65z"/>
	<path d="M107.123,31.594c0.112,6.664,4.368,9.408,9.296,9.408c3.528,0,5.656-0.615,7.504-1.4l0.84,3.528
		c-1.735,0.784-4.704,1.736-9.016,1.736c-8.344,0-13.328-5.544-13.328-13.72c0-8.176,4.816-14.616,12.712-14.616
		c8.848,0,11.2,7.784,11.2,12.768c0,1.009-0.112,1.792-0.168,2.296H107.123z M121.571,28.066c0.056-3.136-1.288-8.008-6.832-8.008
		c-4.984,0-7.168,4.592-7.561,8.008H121.571z"/>
	<path d="M131.763,39.21c1.456,0.952,4.032,1.96,6.496,1.96c3.584,0,5.264-1.792,5.264-4.031c0-2.353-1.399-3.641-5.04-4.984
		c-4.872-1.736-7.168-4.424-7.168-7.672c0-4.368,3.528-7.952,9.353-7.952c2.743,0,5.151,0.784,6.664,1.68l-1.232,3.584
		c-1.064-0.672-3.024-1.568-5.544-1.568c-2.912,0-4.536,1.68-4.536,3.696c0,2.24,1.624,3.248,5.152,4.592
		c4.704,1.793,7.111,4.145,7.111,8.176c0,4.761-3.695,8.177-10.136,8.177c-2.968,0-5.712-0.784-7.616-1.904L131.763,39.21z"/>
</g>
<circle cx="167.167" cy="34.208" r="10.75"/>
</svg>
